<svg xmlns="http://www.w3.org/2000/svg" xmlns:xlink="http://www.w3.org/1999/xlink" width="164" height="66" version="1.1" viewBox="0 0 164 66"><title>Pixelfed</title><defs><rect id="path-1" width="32" height="31.857" x="0" y=".072"/><linearGradient id="linearGradient-3" x1="100%" x2="0%" y1="55.807%" y2="60.118%"><stop offset="0%" stop-color="#FF5C34"/><stop offset="100%" stop-color="#EB0256"/></linearGradient><linearGradient id="linearGradient-4" x1="33.089%" x2="68.99%" y1="100%" y2="15.31%"><stop offset="0%" stop-color="#A63FDB"/><stop offset="100%" stop-color="#FF257E"/></linearGradient><linearGradient id="linearGradient-5" x1="14.722%" x2="94.315%" y1="50%" y2="67.526%"><stop offset="0%" stop-color="#00FFF0"/><stop offset="100%" stop-color="#0087FF"/></linearGradient><linearGradient id="linearGradient-6" x1="81.226%" x2="20.815%" y1="10.013%" y2="74.492%"><stop offset="0%" stop-color="#17C934"/><stop offset="100%" stop-color="#03FF6E"/></linearGradient><linearGradient id="linearGradient-7" x1="50%" x2="30.56%" y1="111.913%" y2="0%"><stop offset="0%" stop-color="#FFB000"/><stop offset="100%" stop-color="#FF7725"/></linearGradient><path id="path-8" d="M16.5629567,15.7847534 C16.3320007,11.4318877 12.5722739,8.08812397 8.16537186,8.31624799 C3.75846979,8.54437201 0.373196593,12.2579979 0.604152544,16.6108635 L0.610790017,16.7359611 C0.591854246,16.4212847 0.582251543,16.1041267 0.582251543,15.7847534 C0.582251543,9.28495117 4.55962529,3.70272362 10.2415141,1.28306011 L10.5764792,1.1493849 C14.668095,-0.483465038 19.3251237,1.46908738 20.9782438,5.51053279 C22.6313639,9.55197819 20.6545725,14.1519034 16.5629567,15.7847534 Z"/><path id="path-9" d="M10.4568103,1.19714141 L10.5764792,1.1493849 C14.668095,-0.483465038 19.3251237,1.46908738 20.9782438,5.51053279 C22.6313639,9.55197819 20.6545725,14.1519034 16.5629567,15.7847534 C16.5287612,15.1402661 16.4172084,14.5179002 16.2376512,13.925974 C18.4328293,12.7376931 19.9211842,10.434102 19.9211842,7.78714942 C19.9211842,3.92363278 16.7503045,0.791633725 12.8388262,0.791633725 C12.0031121,0.791633725 11.2012057,0.93460714 10.4568103,1.19714141 Z"/><linearGradient id="linearGradient-10" x1="-81.365%" x2="121.418%" y1="59.623%" y2="72.058%"><stop offset="0%" stop-color="#9EE85D"/><stop offset="100%" stop-color="#0ED061"/></linearGradient><path id="path-11" d="M18.1628487,5.93289488 L18.2825176,5.88513837 C22.3741334,4.25228843 27.0311621,6.20484085 28.6842822,10.2462863 C30.3374023,14.2877317 28.3606109,18.8876569 24.2689951,20.5205068 C24.2347996,19.8760196 24.1232468,19.2536537 23.9436896,18.6617275 C26.1388677,17.4734465 27.6272226,15.1698554 27.6272226,12.5229029 C27.6272226,8.65938625 24.4563429,5.52738719 20.5448646,5.52738719 C19.7091505,5.52738719 18.9072441,5.67036061 18.1628487,5.93289488 Z"/><linearGradient id="linearGradient-12" x1="45.51%" x2="0%" y1="116.819%" y2="-4.038%"><stop offset="0%" stop-color="#21EFE3"/><stop offset="100%" stop-color="#2598FF"/></linearGradient><path id="path-13" d="M16.0865546,14.5487042 L16.2062235,14.5009476 C20.2978393,12.8680977 24.954868,14.8206501 26.6079881,18.8620955 C28.2611082,22.9035409 26.2843168,27.5034662 22.192701,29.1363161 C22.1585055,28.4918288 22.0469527,27.869463 21.8673955,27.2775368 C24.0625736,26.0892558 25.5509285,23.7856647 25.5509285,21.1387122 C25.5509285,17.2751955 22.3800488,14.1431965 18.4685705,14.1431965 C17.6328564,14.1431965 16.83095,14.2861699 16.0865546,14.5487042 Z"/><linearGradient id="linearGradient-14" x1="100%" x2="-89.649%" y1="58.207%" y2="74.317%"><stop offset="0%" stop-color="#A63FDB"/><stop offset="100%" stop-color="#FF257E"/></linearGradient><path id="path-15" d="M6.81861958,15.2094863 L6.93828846,15.1617298 C11.0299043,13.5288799 15.686933,15.4814323 17.3400531,19.5228777 C18.9931732,23.5643231 17.0163818,28.1642483 12.924766,29.7970983 C12.8905705,29.152611 12.7790177,28.5302451 12.5994605,27.9383189 C14.7946386,26.750038 16.2829935,24.4464469 16.2829935,21.7994943 C16.2829935,17.9359777 13.1121138,14.8039786 9.20063553,14.8039786 C8.36492137,14.8039786 7.56301499,14.946952 6.81861958,15.2094863 Z"/><path id="path-16" d="M3.54934679,6.84621104 L3.66901567,6.79845452 C7.76063153,5.16560459 12.4176602,7.11815701 14.0707803,11.1596024 C15.7239004,15.2010478 13.747109,19.8009731 9.65549317,21.433823 C9.62129773,20.7893357 9.50974492,20.1669699 9.33018775,19.5750436 C11.5253658,18.3867627 13.0137207,16.0831716 13.0137207,13.436219 C13.0137207,9.57270241 9.84284102,6.44070335 5.93136273,6.44070335 C5.09564858,6.44070335 4.2937422,6.58367676 3.54934679,6.84621104 Z"/><path id="path-17" d="M22.8043085,27.1187828 L25.7130006,27.1187828 C28.4531049,27.1187828 30.6743983,24.9660468 30.6743983,22.3105125 C30.6743983,19.6549781 28.4531049,17.5022422 25.7130006,17.5022422 L21.514895,17.5022422 C19.9340656,17.5022422 18.6525502,18.7442052 18.6525502,20.2762442 L18.6525502,31.0730295 L22.8043085,27.1187828 Z"/><filter id="filter-18" width="183.2%" height="173.7%" x="-41.6%" y="-29.5%" filterUnits="objectBoundingBox"><feOffset dx="0" dy="1" in="SourceAlpha" result="shadowOffsetOuter1"/><feGaussianBlur in="shadowOffsetOuter1" result="shadowBlurOuter1" stdDeviation="1.5"/><feColorMatrix in="shadowBlurOuter1" type="matrix" values="0 0 0 0 0 0 0 0 0 0 0 0 0 0 0 0 0 0 0.298686594 0"/></filter></defs><g id="Page-1" fill="none" fill-rule="evenodd" stroke="none" stroke-width="1"><g id="full-copy-9"><g id="Group" transform="translate(18.000000, 17.000000)"><text id="Pixelfed" fill="#393D41" font-family="-apple-system,BlinkMacSystemFont,Segoe UI, Roboto,Helvetica,Arial,sans-serif" font-size="25.105" font-weight="bold" letter-spacing="-.785"><tspan x="39.561" y="25.5">Pixelfed</tspan></text><g><mask id="mask-2" fill="#fff"><use xlink:href="#path-1"/></mask><g id="Group-12" mask="url(#mask-2)"><g transform="translate(-8.063063, -7.744395)"><g id="Group-5" fill-rule="evenodd" stroke-width="1" transform="translate(23.871239, 23.842108) rotate(40.000000) translate(-23.871239, -23.842108) translate(7.371239, 7.842108)"><path id="Combined-Shape" fill="url(#linearGradient-3)" d="M16.5629567,15.7847534 C12.2810903,14.7302547 7.94449968,17.3039909 6.87691048,21.533354 C5.80932129,25.7627171 8.41500779,30.0461334 12.6968742,31.1006321 L13.0208239,31.1804114 C6.20216386,29.6563243 1.03743975,23.8260669 0.610789994,16.7359607 L0.604152544,16.6108635 C0.373196593,12.2579979 3.75846979,8.54437201 8.16537186,8.31624799 C12.5722739,8.08812397 16.3320007,11.4318877 16.5629567,15.7847534 Z"/><path id="Combined-Shape-Copy-6" fill="url(#linearGradient-4)" d="M16.5629567,15.7847534 C14.2901195,19.5210079 15.5140535,24.3697469 19.2966898,26.6147151 C23.0793261,28.8596833 27.9882573,27.6507568 30.2610945,23.9145023 L30.411667,23.6669804 C27.6499934,28.3906506 22.4823143,31.5695067 16.5629567,31.5695067 C15.345661,31.5695067 14.1601542,31.4350713 13.0208239,31.1804114 L12.6968742,31.1006321 C8.41500779,30.0461334 5.80932129,25.7627171 6.87691048,21.533354 C7.94449968,17.3039909 12.2810903,14.7302547 16.5629567,15.7847534 Z"/><path id="Combined-Shape-Copy-5" fill="url(#linearGradient-5)" d="M16.5629567,15.7847534 C19.3995462,19.123818 24.4395057,19.5593506 27.8200215,16.7575427 C31.2005372,13.9557348 31.6414765,8.97757409 28.804887,5.63850948 L28.7399364,5.56205345 C31.1121696,8.31622106 32.5436618,11.8853656 32.5436618,15.7847534 C32.5436618,18.6556561 31.7677129,21.3475485 30.411667,23.6669804 L30.2610945,23.9145023 C27.9882573,27.6507568 23.0793261,28.8596833 19.2966898,26.6147151 C15.5140535,24.3697469 14.2901195,19.5210079 16.5629567,15.7847534 Z"/><path id="Combined-Shape-Copy-4" fill="url(#linearGradient-6)" d="M16.5629567,15.7847534 C20.6545725,14.1519034 22.6313639,9.55197819 20.9782438,5.51053279 C19.3251237,1.46908738 14.668095,-0.483465038 10.5764792,1.1493849 L10.2415141,1.28306011 C12.1803003,0.457417369 14.3175476,0 16.5629567,0 C21.4410616,0 25.8086789,2.15885759 28.7399364,5.56205345 L28.804887,5.63850948 C31.6414765,8.97757409 31.2005372,13.9557348 27.8200215,16.7575427 C24.4395057,19.5593506 19.3995462,19.123818 16.5629567,15.7847534 Z"/><g id="Combined-Shape-Copy-3" fill="url(#linearGradient-7)"><use xlink:href="#path-8"/><use fill-opacity=".1" xlink:href="#path-8" style="mix-blend-mode:multiply"/></g><g id="Combined-Shape" opacity=".505"><use fill="url(#linearGradient-7)" xlink:href="#path-9"/><use fill="#000" fill-opacity=".496" xlink:href="#path-9" style="mix-blend-mode:overlay"/></g><g id="Combined-Shape-Copy-7" opacity=".544" transform="translate(23.715537, 12.914431) rotate(72.000000) translate(-23.715537, -12.914431)"><use fill="url(#linearGradient-10)" xlink:href="#path-11"/><use fill="#000" fill-opacity=".5" xlink:href="#path-11" style="mix-blend-mode:overlay"/></g><g id="Combined-Shape-Copy-8" opacity=".562" transform="translate(21.639243, 21.530240) rotate(143.000000) translate(-21.639243, -21.530240)"><use fill="url(#linearGradient-12)" xlink:href="#path-13"/><use fill="#000" xlink:href="#path-13" style="mix-blend-mode:overlay"/></g><g id="Combined-Shape-Copy-9" opacity=".584" transform="translate(12.371308, 22.191023) rotate(217.000000) translate(-12.371308, -22.191023)"><use fill="url(#linearGradient-14)" xlink:href="#path-15"/><use fill="#000" fill-opacity=".503" xlink:href="#path-15" style="mix-blend-mode:overlay"/></g><g id="Combined-Shape-Copy-10" opacity=".18" transform="translate(9.102035, 13.827747) rotate(-71.000000) translate(-9.102035, -13.827747)"><use fill="url(#linearGradient-3)" xlink:href="#path-16"/><use fill="#000" fill-opacity=".773" xlink:href="#path-16" style="mix-blend-mode:multiply"/></g></g><g id="Path-6-Copy-2" fill-rule="nonzero"><use fill="#000" fill-opacity="1" filter="url(#filter-18)" xlink:href="#path-17"/><use fill="#FFF" xlink:href="#path-17"/></g></g></g></g></g></g></g></svg>